<svg width="25" height="32" viewBox="0 0 25 32" fill="none" xmlns="http://www.w3.org/2000/svg">
<path d="M12.5 14.0625C13.7944 14.0625 14.8438 13.0132 14.8438 11.7188C14.8438 10.4243 13.7944 9.375 12.5 9.375C11.2056 9.375 10.1562 10.4243 10.1562 11.7188C10.1562 13.0132 11.2056 14.0625 12.5 14.0625Z" fill="#E1332B"/>
<path d="M12.5 1.56479e-08C9.20634 -0.000164672 6.04571 1.29962 3.70507 3.61686C1.36442 5.9341 0.0329366 9.0815 0 12.375C0 20.9375 11.0156 30.4688 11.4844 30.875C11.7674 31.1171 12.1276 31.2501 12.5 31.2501C12.8724 31.2501 13.2326 31.1171 13.5156 30.875C14.0625 30.4688 25 20.9375 25 12.375C24.9671 9.0815 23.6356 5.9341 21.2949 3.61686C18.9543 1.29962 15.7937 -0.000164672 12.5 1.56479e-08ZM12.5 17.1875C11.4184 17.1875 10.3611 16.8668 9.46173 16.2659C8.56239 15.6649 7.86145 14.8108 7.44753 13.8115C7.03362 12.8123 6.92532 11.7127 7.13633 10.6518C7.34734 9.59102 7.86819 8.61658 8.63301 7.85176C9.39783 7.08694 10.3723 6.56609 11.4331 6.35508C12.4939 6.14407 13.5935 6.25237 14.5928 6.66628C15.5921 7.0802 16.4462 7.78114 17.0471 8.68048C17.648 9.57981 17.9688 10.6371 17.9688 11.7188C17.9688 13.1692 17.3926 14.5602 16.367 15.5857C15.3414 16.6113 13.9504 17.1875 12.5 17.1875Z" fill="#E1332B"/>
</svg>
