<svg width="35" height="35" viewBox="0 0 35 35" fill="none" xmlns="http://www.w3.org/2000/svg">
<path d="M0.119 2.59351L15.6502 18.1266C16.1097 18.5863 16.7234 18.8593 17.3726 18.8926C18.0217 18.9259 18.6602 18.7172 19.1642 18.3068L19.3637 18.1266L34.8845 2.60401C34.9347 2.79651 34.9685 2.99309 34.986 3.19376L35 3.50001V24.5001C35.0003 25.3831 34.6668 26.2336 34.0664 26.881C33.466 27.5285 32.643 27.9251 31.7625 27.9913L31.5 28.0001H3.5C2.61699 28.0004 1.76651 27.6669 1.11904 27.0665C0.471574 26.4661 0.0749758 25.6431 0.0087502 24.7626L0 24.5001V3.50001C0 3.29001 0.0174999 3.08584 0.0524999 2.88751L0.119 2.59351ZM31.5 0C31.7123 0 31.9194 0.0180836 32.1213 0.0542504L32.4188 0.122501L17.5088 15.0325L2.5935 0.119C2.78717 0.0664999 2.9855 0.0314999 3.1885 0.0139999L3.5 0H31.5Z" fill="#1D4389"/>
</svg>
