<svg width="35" height="35" viewBox="0 0 35 35" fill="none" xmlns="http://www.w3.org/2000/svg">
<path d="M31.5707 23.8676L26.6218 23.3026C26.0399 23.2342 25.4501 23.2987 24.8967 23.491C24.3432 23.6834 23.8406 23.9986 23.4265 24.4132L19.8415 27.9982C14.3109 25.1846 9.81535 20.689 7.00179 15.1584L10.6063 11.5539C11.4441 10.7161 11.8532 9.54705 11.7168 8.35854L11.1518 3.44863C11.0418 2.498 10.5857 1.6211 9.87069 0.985091C9.15563 0.349083 8.23154 -0.00155884 7.27456 5.20987e-06H3.90389C1.70224 5.20987e-06 -0.129228 1.83148 0.00715728 4.03314C1.03979 20.6723 14.3471 33.9602 30.9667 34.9928C33.1683 35.1292 34.9998 33.2978 34.9998 31.0961V27.7254C35.0193 25.7575 33.5385 24.1014 31.5707 23.8676Z" fill="#1D4488"/>
</svg>
