<svg width="20" height="20" viewBox="0 0 20 20" fill="none" xmlns="http://www.w3.org/2000/svg">
<path d="M13.717 3.07486L16.9255 6.28329M5.49999 5.5003H2.125C1.82663 5.5003 1.54048 5.61883 1.3295 5.8298C1.11853 6.04078 1 6.32692 1 6.62528V17.875C1 18.1734 1.11853 18.4595 1.3295 18.6705C1.54048 18.8815 1.82663 19 2.125 19H14.5C14.7983 19 15.0845 18.8815 15.2955 18.6705C15.5064 18.4595 15.625 18.1734 15.625 17.875V12.8126M18.3351 1.66414C18.5459 1.87485 18.7131 2.12503 18.8272 2.40038C18.9413 2.67574 19 2.97087 19 3.26892C19 3.56697 18.9413 3.8621 18.8272 4.13745C18.7131 4.4128 18.5459 4.66298 18.3351 4.87369L10.6356 12.573L6.62499 13.3751L7.42711 9.36459L15.1266 1.66527C15.3371 1.45437 15.5872 1.28706 15.8625 1.17291C16.1378 1.05876 16.4328 1 16.7308 1C17.0289 1 17.3239 1.05876 17.5992 1.17291C17.8745 1.28706 18.1245 1.45437 18.3351 1.66527V1.66414Z" stroke="#777E91" stroke-width="2" stroke-linecap="round" stroke-linejoin="round"/>
</svg>
