<svg width="35" height="41" viewBox="0 0 35 41" fill="none" xmlns="http://www.w3.org/2000/svg">
<path d="M35 33.1905V35.1429H0V33.1905L3.88889 29.2857V17.5714C3.88889 11.519 7.83611 6.18905 13.6111 4.47095V3.90476C13.6111 2.86915 14.0208 1.87596 14.7501 1.14368C15.4794 0.411393 16.4686 0 17.5 0C18.5314 0 19.5205 0.411393 20.2499 1.14368C20.9792 1.87596 21.3889 2.86915 21.3889 3.90476V4.47095C27.1639 6.18905 31.1111 11.519 31.1111 17.5714V29.2857L35 33.1905ZM21.3889 37.0952C21.3889 38.1308 20.9792 39.124 20.2499 39.8563C19.5205 40.5886 18.5314 41 17.5 41C16.4686 41 15.4794 40.5886 14.7501 39.8563C14.0208 39.124 13.6111 38.1308 13.6111 37.0952" fill="#1D4488"/>
</svg>
