<svg width="20" height="19" viewBox="0 0 20 19" fill="none" xmlns="http://www.w3.org/2000/svg">
<path d="M10.6671 0.678283C10.667 0.580477 10.6462 0.483835 10.6061 0.394979C10.5659 0.306123 10.5074 0.227153 10.4344 0.163481C10.3615 0.0998082 10.2759 0.0529379 10.1835 0.0260817C10.091 -0.000774608 9.99403 -0.00698216 9.89905 0.00788436L0.565355 1.45996C0.407993 1.48459 0.264486 1.56573 0.160791 1.68869C0.0570962 1.81165 6.05811e-05 1.96832 0 2.13036V16.8683C6.05811e-05 17.0303 0.0570962 17.187 0.160791 17.31C0.264486 17.4329 0.407993 17.514 0.565355 17.5387L9.89905 18.9921C9.99403 19.007 10.091 19.0008 10.1835 18.9739C10.2759 18.9471 10.3615 18.9002 10.4344 18.8365C10.5074 18.7728 10.5659 18.6939 10.6061 18.605C10.6462 18.5162 10.667 18.4195 10.6671 18.3217V9.49932H17.5633L16.234 10.6854C16.1088 10.806 16.0344 10.9711 16.0263 11.1463C16.0182 11.3215 16.0771 11.493 16.1905 11.625C16.304 11.757 16.4633 11.8391 16.6349 11.8542C16.8066 11.8693 16.9773 11.8162 17.1113 11.7059L19.7728 9.33104C19.8442 9.26736 19.9014 9.18889 19.9405 9.10089C19.9797 9.01289 20 8.91739 20 8.82078C20 8.72416 19.9797 8.62866 19.9405 8.54067C19.9014 8.45267 19.8442 8.3742 19.7728 8.31052L17.1113 5.93562C16.9784 5.81721 16.8046 5.7574 16.6283 5.76936C16.452 5.78133 16.2876 5.86407 16.1713 5.9994C16.0549 6.13473 15.9962 6.31156 16.0079 6.49099C16.0197 6.67041 16.101 6.83773 16.234 6.95615L17.5633 8.14224H10.6671V0.678283ZM7.33362 11.1957C7.06839 11.1957 6.81403 11.0884 6.62648 10.8976C6.43894 10.7067 6.33358 10.4478 6.33358 10.1779C6.33358 9.90792 6.43894 9.64904 6.62648 9.45816C6.81403 9.26728 7.06839 9.16005 7.33362 9.16005C7.59884 9.16005 7.85321 9.26728 8.04075 9.45816C8.22829 9.64904 8.33366 9.90792 8.33366 10.1779C8.33366 10.4478 8.22829 10.7067 8.04075 10.8976C7.85321 11.0884 7.59884 11.1957 7.33362 11.1957ZM12.6672 17.6418H12.0005V10.8564H13.3338V16.9633C13.3338 17.1432 13.2636 17.3158 13.1386 17.4431C13.0136 17.5703 12.844 17.6418 12.6672 17.6418ZM12.0005 6.78516V1.35682H12.6672C12.844 1.35682 13.0136 1.42831 13.1386 1.55556C13.2636 1.68282 13.3338 1.85541 13.3338 2.03537V6.78516H12.0005Z" fill="#E1332B"/>
</svg>
